<svg width="1440" height="1024" viewBox="0 0 1440 1024" fill="none" xmlns="http://www.w3.org/2000/svg">
<g clip-path="url(#clip0_69_3085)">
<rect width="1440" height="1024" fill="url(#paint0_linear_69_3085)"/>
<rect y="701" width="1440" height="354" fill="url(#paint1_linear_69_3085)"/>
<path opacity="0.5" d="M1450.36 744.558C820.65 745.777 193.722 763.218 -41.0281 771.786C-222.218 820.791 -482.393 905.106 -73.5711 850.323C335.25 795.54 1137.13 756.375 1486.97 751.735C1510.7 747.603 1536.6 753.336 1450.36 744.558Z" fill="url(#paint2_linear_69_3085)"/>
<path opacity="0.25" d="M-112.839 861.79C649.033 864.37 1407.54 901.278 1691.56 919.41C1910.78 1023.11 2225.56 1260.83 1730.94 1144.9C1236.31 1028.98 266.129 921.058 -157.134 911.24C-185.844 902.496 -217.178 880.366 -112.839 861.79Z" fill="url(#paint3_linear_69_3085)"/>
<g clip-path="url(#clip1_69_3085)">
<rect width="1440" height="731" fill="url(#paint4_linear_69_3085)"/>
<path opacity="0.5" d="M-120.952 -76.3205C640.004 -38.8346 1395.67 41.501 1678.38 76.9831C1891.53 216.74 2192.59 528.672 1705 361.217C1217.41 193.763 254.291 14.9598 -167.99 -16.3691C-196.178 -28.6121 -226.233 -57.7427 -120.952 -76.3205Z" fill="url(#paint5_linear_69_3085)"/>
<path opacity="0.5" d="M-130.839 482.845C631.033 483.502 1389.54 492.898 1673.56 497.514C1892.78 523.915 2207.56 584.434 1712.94 554.921C1218.31 525.408 248.129 497.934 -175.134 495.434C-203.844 493.209 -235.178 487.575 -130.839 482.845Z" fill="url(#paint6_linear_69_3085)"/>
<path opacity="0.5" d="M1788.33 411.685C988.964 390.988 192.808 382.181 -105.349 380.364C-336.311 409.781 -668.779 482.536 -148.751 456.72C371.278 430.904 1390.18 421.312 1834.35 429.929C1864.55 427.739 1897.63 421.023 1788.33 411.685Z" fill="url(#paint7_linear_69_3085)"/>
<path d="M-62.0393 499L-187 590.105V731H567L538.407 696.041L481.751 671.146L388.56 675.384L307.548 590.105L235.537 607.584L178.351 633.539L48.625 537.667L17.9143 546.142L-62.0393 499Z" fill="#151278"/>
<path d="M937.05 700.253L874 731H1499V499L1382.41 549.313L1361.89 544.122L1287.33 611.606L1209.27 596.432L1123.7 649.94L1097.68 646.346L1011.61 705.045L937.05 700.253Z" fill="#151278"/>
<circle cx="437.5" cy="103.5" r="4.5" fill="#5DA9EF"/>
<circle cx="1043.04" cy="322.848" r="4.5" transform="rotate(-15 1043.04 322.848)" fill="#5DA9EF"/>
<circle cx="104.04" cy="53.848" r="4.5" transform="rotate(-15 104.04 53.848)" fill="#5DA9EF"/>
<circle cx="295.5" cy="125.5" r="1.5" fill="#5DA9EF"/>
<circle cx="911.573" cy="380.851" r="1.5" transform="rotate(-15 911.573 380.851)" fill="#5DA9EF"/>
<circle cx="107.5" cy="194.5" r="1.5" fill="#5DA9EF"/>
<circle cx="747.837" cy="496.158" r="1.5" transform="rotate(-15 747.837 496.158)" fill="#5DA9EF"/>
<circle cx="993.177" cy="435.691" r="1.5" transform="rotate(-47.974 993.177 435.691)" fill="#5DA9EF"/>
<circle cx="726.76" cy="230.9" r="1.5" transform="rotate(-62.974 726.76 230.9)" fill="#5DA9EF"/>
<circle cx="918.118" cy="416.5" r="1.5" transform="rotate(-47.974 918.118 416.5)" fill="#5DA9EF"/>
<circle cx="649.292" cy="231.79" r="1.5" transform="rotate(-62.974 649.292 231.79)" fill="#5DA9EF"/>
<circle cx="184.118" cy="560.5" r="1.5" transform="rotate(-47.974 184.118 560.5)" fill="#5DA9EF"/>
<circle cx="635.5" cy="191.5" r="1.5" fill="#5DA9EF"/>
<circle cx="1257.07" cy="356.604" r="1.5" transform="rotate(-15 1257.07 356.604)" fill="#5DA9EF"/>
<circle cx="318.069" cy="87.6036" r="1.5" transform="rotate(-15 318.069 87.6036)" fill="#5DA9EF"/>
<circle cx="447.5" cy="260.5" r="1.5" fill="#5DA9EF"/>
<circle cx="1093.33" cy="471.91" r="1.5" transform="rotate(-15 1093.33 471.91)" fill="#5DA9EF"/>
<circle cx="154.334" cy="202.91" r="1.5" transform="rotate(-15 154.334 202.91)" fill="#5DA9EF"/>
<circle cx="1269.82" cy="227.309" r="1.5" transform="rotate(-47.974 1269.82 227.309)" fill="#5DA9EF"/>
<circle cx="1194.76" cy="208.118" r="1.5" transform="rotate(-47.974 1194.76 208.118)" fill="#5DA9EF"/>
<circle cx="460.765" cy="352.118" r="1.5" transform="rotate(-47.974 460.765 352.118)" fill="#5DA9EF"/>
<circle cx="1129.86" cy="556.974" r="1.5" transform="rotate(-62.974 1129.86 556.974)" fill="#5DA9EF"/>
<circle cx="190.859" cy="287.974" r="1.5" transform="rotate(-62.974 190.859 287.974)" fill="#5DA9EF"/>
<circle cx="1201.5" cy="320.5" r="4.5" fill="#5DA9EF"/>
<circle cx="898.171" cy="65.7162" r="4.5" transform="rotate(-15 898.171 65.7162)" fill="#5DA9EF"/>
<circle cx="137.5" cy="316.5" r="4.5" fill="#5DA9EF"/>
<circle cx="808.391" cy="606.236" r="4.5" transform="rotate(-15 808.391 606.236)" fill="#5DA9EF"/>
<circle cx="582.5" cy="625.5" r="4.5" fill="#5DA9EF"/>
<circle cx="379.203" cy="520.533" r="4.5" transform="rotate(-15 379.203 520.533)" fill="#5DA9EF"/>
</g>
</g>
<defs>
<linearGradient id="paint0_linear_69_3085" x1="720" y1="0" x2="720" y2="1024" gradientUnits="userSpaceOnUse">
<stop stop-color="#190131"/>
<stop offset="1" stop-color="#282B96"/>
</linearGradient>
<linearGradient id="paint1_linear_69_3085" x1="720" y1="701" x2="720" y2="1055" gradientUnits="userSpaceOnUse">
<stop stop-color="#3522A0"/>
<stop offset="0.31" stop-color="#2C187F"/>
<stop offset="1" stop-color="#190334"/>
</linearGradient>
<linearGradient id="paint2_linear_69_3085" x1="609.5" y1="744.558" x2="609.5" y2="868.17" gradientUnits="userSpaceOnUse">
<stop stop-color="#3931C1"/>
<stop offset="1" stop-color="#3931C1" stop-opacity="0"/>
</linearGradient>
<linearGradient id="paint3_linear_69_3085" x1="904.5" y1="861.79" x2="904.5" y2="1123.37" gradientUnits="userSpaceOnUse">
<stop stop-color="#3931C1"/>
<stop offset="1" stop-color="#3931C1" stop-opacity="0"/>
</linearGradient>
<linearGradient id="paint4_linear_69_3085" x1="720" y1="0" x2="720" y2="731" gradientUnits="userSpaceOnUse">
<stop stop-color="#1A0337"/>
<stop offset="0.335129" stop-color="#131381"/>
<stop offset="1" stop-color="#35B6FF"/>
</linearGradient>
<linearGradient id="paint5_linear_69_3085" x1="-12.9128" y1="-89.4761" x2="1516.18" y2="343.21" gradientUnits="userSpaceOnUse">
<stop stop-color="#4531C1"/>
<stop offset="1" stop-color="#7931C1" stop-opacity="0"/>
</linearGradient>
<linearGradient id="paint6_linear_69_3085" x1="-23.5" y1="479.191" x2="674.295" y2="1286.76" gradientUnits="userSpaceOnUse">
<stop stop-color="#7966FF"/>
<stop offset="0.0001" stop-color="#66C8FF"/>
<stop offset="1" stop-color="#3A88E1"/>
</linearGradient>
<linearGradient id="paint7_linear_69_3085" x1="1675.85" y1="403.713" x2="706.384" y2="1229.75" gradientUnits="userSpaceOnUse">
<stop stop-color="#2772CB"/>
<stop offset="1" stop-color="#45A0E8"/>
</linearGradient>
<clipPath id="clip0_69_3085">
<rect width="1440" height="1024" fill="white"/>
</clipPath>
<clipPath id="clip1_69_3085">
<rect width="1440" height="731" fill="white"/>
</clipPath>
</defs>
</svg>
